<?xml version="1.0" encoding="UTF-8"?>
<svg version="1.1" xmlns="http://www.w3.org/2000/svg" width="1024" height="1024">
<path d="M0,0 L5,1 L34,17 L61,32 L84,45 L100,54 L97,57 L70,72 L52,82 L27,96 L6,108 L0,107 L-28,91 L-55,76 L-82,61 L-92,55 L-93,52 L-80,45 L-57,32 L-39,22 L-18,10 Z " fill="#356BB3" transform="translate(510,491)"/>
<path d="M0,0 L5,2 L27,14 L50,27 L66,36 L94,52 L97,53 L97,162 L92,160 L72,149 L49,136 L24,122 L0,109 Z " fill="#3CBD91" transform="translate(294,498)"/>
<path d="M0,0 L10,5 L26,14 L54,30 L74,41 L93,52 L96,53 L96,163 L90,161 L66,147 L39,132 L15,118 L1,110 L0,109 Z " fill="#179EA9" transform="translate(409,561)"/>
<path d="M0,0 L4,2 L19,10 L40,22 L58,32 L76,42 L96,53 L96,55 L74,67 L58,76 L39,87 L14,101 L2,108 L-3,106 L-27,93 L-48,81 L-70,69 L-93,56 L-95,55 L-95,53 L-84,47 L-58,33 L-37,21 L-12,7 Z " fill="#745CC8" transform="translate(398,303)"/>
<path d="M0,0 L2,0 L2,105 L-8,111 L-31,124 L-54,137 L-82,153 L-93,159 L-95,159 L-95,54 L-78,44 L-53,30 L-32,18 L-11,6 Z " fill="#5B23A3" transform="translate(728,373)"/>
<path d="M0,0 L4,1 L23,11 L44,23 L71,38 L95,51 L97,52 L97,54 L75,66 L57,76 L36,88 L11,102 L3,107 L-3,105 L-24,93 L-47,80 L-76,64 L-94,54 L-91,51 L-62,35 L-37,21 L-18,10 Z " fill="#7C29AF" transform="translate(623,304)"/>
<path d="M0,0 L6,2 L31,16 L54,29 L83,45 L96,52 L96,54 L74,66 L53,78 L28,92 L3,106 L-3,104 L-26,91 L-51,77 L-78,62 L-90,55 L-93,54 L-92,51 L-66,37 L-45,25 L-20,11 L-2,1 Z " fill="#992DBC" transform="translate(510,240)"/>
<path d="M0,0 L5,2 L28,15 L51,28 L73,40 L96,53 L96,157 L91,155 L76,147 L53,134 L26,119 L3,106 L0,105 Z " fill="#2AA4AD" transform="translate(294,373)"/>
<path d="M0,0 L6,2 L27,14 L54,29 L77,42 L94,52 L95,53 L95,154 L89,152 L65,138 L40,124 L15,110 L0,101 Z " fill="#5145B4" transform="translate(521,374)"/>
<path d="M0,0 L1,0 L1,102 L-19,113 L-33,121 L-59,136 L-80,148 L-91,154 L-93,154 L-93,53 L-74,42 L-51,29 L-26,15 L-5,3 Z " fill="#4556B5" transform="translate(502,373)"/>
<path d="M0,0 L1,0 L1,102 L-3,104 L-6,103 L-2,101 L-2,1 Z " fill="#5840AE" transform="translate(502,373)"/>
<path d="M0,0 L2,0 L2,101 L-2,100 L-2,98 L0,98 L-1,87 Z " fill="#6148B3" transform="translate(614,427)"/>
<path d="M0,0 L6,2 L2,3 L2,78 L0,80 Z " fill="#5A5CC0" transform="translate(521,374)"/>
<path d="M0,0 L5,2 L2,4 L2,40 L1,108 L0,108 Z " fill="#23ACAC" transform="translate(409,561)"/>
<path d="M0,0 L2,0 L2,32 L1,32 L1,3 L-4,3 Z " fill="#651CA1" transform="translate(728,373)"/>
<path d="M0,0 L6,2 L6,4 L-7,11 L-9,10 L2,3 Z " fill="#782DB5" transform="translate(488,354)"/>
<path d="M0,0 L6,2 L2,3 L1,19 L0,19 Z " fill="#6465C3" transform="translate(521,374)"/>
<path d="M0,0 L4,1 L-4,6 L-7,5 L-1,3 Z " fill="#8735B5" transform="translate(553,320)"/>
<path d="M0,0 L2,0 L1,4 L3,4 L2,6 L-2,3 L-2,1 Z " fill="#3C8EBB" transform="translate(419,542)"/>
<path d="M0,0 L5,2 L2,4 L0,7 Z " fill="#34B1AF" transform="translate(409,561)"/>
<path d="M0,0 L2,0 L1,3 L-5,4 Z " fill="#7E37AD" transform="translate(678,401)"/>
<path d="M0,0 L2,0 L1,4 L-4,3 Z " fill="#7B34AD" transform="translate(728,373)"/>
<path d="M0,0 L4,1 L2,4 L-1,3 Z " fill="#A047BE" transform="translate(418,291)"/>
<path d="M0,0 L3,1 L3,3 L0,4 Z " fill="#9139BB" transform="translate(717,355)"/>
<path d="M0,0 L2,0 L1,3 L-3,2 Z " fill="#883EB4" transform="translate(711,382)"/>
<path d="M0,0 L1,3 L-1,4 L-3,2 Z " fill="#884DBC" transform="translate(532,355)"/>
<path d="M0,0 L2,0 L1,3 L-1,3 Z " fill="#773CAC" transform="translate(648,418)"/>
<path d="M0,0 L2,0 L1,3 L-2,1 Z " fill="#793FB2" transform="translate(655,414)"/>
</svg>
